<svg width="25" height="25" viewBox="0 0 25 25" fill="none" xmlns="http://www.w3.org/2000/svg">
<path d="M12.6677 0C9.39696 0 6.26021 1.29928 3.94747 3.61202C1.63473 5.92476 0.335449 9.06151 0.335449 12.3322C0.335449 15.6029 1.63473 18.7397 3.94747 21.0524C6.26021 23.3651 9.39696 24.6644 12.6677 24.6644C15.9384 24.6644 19.0751 23.3651 21.3879 21.0524C23.7006 18.7397 24.9999 15.6029 24.9999 12.3322C24.9999 9.06151 23.7006 5.92476 21.3879 3.61202C19.0751 1.29928 15.9384 0 12.6677 0Z" fill="#29B6F6"/>
<path d="M18.803 6.78272L16.4932 18.576C16.4932 18.576 16.3939 19.1149 15.7255 19.1149C15.3703 19.1149 15.1872 18.946 15.1872 18.946L10.184 14.7943L7.73605 13.5605L4.59442 12.725C4.59442 12.725 4.03516 12.5634 4.03516 12.101C4.03516 11.7156 4.61045 11.5319 4.61045 11.5319L17.7541 6.3104C17.7541 6.3104 18.1555 6.16549 18.4484 6.16611C18.6285 6.16611 18.8338 6.24319 18.8338 6.47441C18.8338 6.62857 18.803 6.78272 18.803 6.78272Z" fill="white"/>
<path d="M16.3039 8.75342C16.1997 8.61776 16.0073 8.5931 15.8717 8.69607L7.73486 13.5654C7.73486 13.5654 9.03345 17.1985 9.23138 17.8275C9.42993 18.457 9.58901 18.4718 9.58901 18.4718L10.1834 14.7937L16.2459 9.18505C16.3816 9.08207 16.4069 8.88907 16.3039 8.75342Z" fill="#CFD8DC"/>
</svg>
