<svg width="23" height="23" viewBox="0 0 23 23" fill="none" xmlns="http://www.w3.org/2000/svg">
<path d="M11.2518 0C8.26766 0 5.40571 1.18529 3.29558 3.29513C1.18546 5.40496 0 8.26651 0 11.2503C0 14.234 1.18546 17.0956 3.29558 19.2054C5.40571 21.3153 8.26766 22.5005 11.2518 22.5005C14.236 22.5005 17.0979 21.3153 19.2081 19.2054C21.3182 17.0956 22.5037 14.234 22.5037 11.2503C22.5037 8.26651 21.3182 5.40496 19.2081 3.29513C17.0979 1.18529 14.236 0 11.2518 0Z" fill="#2D2E83"/>
<path d="M16.0464 13.4508C15.2754 12.7908 14.4907 12.3898 13.7294 13.0497L13.2737 13.4469C12.9408 13.737 12.3216 15.0881 9.92859 12.3333C7.53558 9.58435 8.95892 9.15604 9.29383 8.86985L9.7514 8.47075C10.5088 7.81077 10.2226 6.97946 9.67546 6.12285L9.3464 5.60498C8.79731 4.75226 8.1976 4.19157 7.43822 4.8496L7.02738 5.20977C6.69053 5.45313 5.75201 6.24939 5.5242 7.76015C5.24966 9.57267 6.11613 11.65 8.09635 13.9278C10.0746 16.2075 12.014 17.3523 13.8481 17.3328C15.3727 17.3153 16.2957 16.4976 16.5838 16.1998L16.9947 15.8396C17.7541 15.1815 17.2829 14.5099 16.5099 13.8499L16.0464 13.4508Z" fill="white"/>
</svg>
