<svg width="25" height="25" viewBox="0 0 25 25" fill="none" xmlns="http://www.w3.org/2000/svg">
<path d="M20.7646 3.56507C18.4681 1.26696 15.4155 0.000770659 12.1664 0C5.45858 0 0.00308333 5.45318 6.92224e-07 12.1564C-0.000769967 14.4537 0.64196 16.6902 1.8596 18.6268L2.14937 19.0869L0.920167 23.5729L5.52332 22.3661L5.96799 22.6296C7.83452 23.7378 9.97541 24.3235 12.1579 24.3243H12.1625C18.8657 24.3243 24.3212 18.8704 24.3235 12.1664C24.3243 8.91807 23.0612 5.86318 20.7646 3.56507Z" fill="#40C351"/>
<path fill-rule="evenodd" clip-rule="evenodd" d="M8.50511 6.04121C8.23152 5.43239 7.9433 5.42005 7.68204 5.40927C7.46857 5.40002 7.22504 5.40079 6.98151 5.40079C6.73798 5.40079 6.34186 5.4925 6.00663 5.85856C5.67139 6.22462 4.72656 7.10857 4.72656 8.90729C4.72656 10.706 6.03668 12.4446 6.21933 12.6881C6.40198 12.9317 8.74863 16.741 12.4648 18.2068C15.5528 19.4245 16.1816 19.1825 16.8521 19.1216C17.5226 19.0607 19.0154 18.2377 19.3198 17.3838C19.6242 16.5299 19.6242 15.7985 19.5332 15.6459C19.4415 15.4933 19.198 15.4024 18.8327 15.219C18.4674 15.0356 16.6695 14.1516 16.3342 14.0299C15.999 13.9081 15.7555 13.8472 15.5112 14.2133C15.2676 14.5786 14.5671 15.4024 14.3536 15.6459C14.1402 15.8902 13.9267 15.9211 13.5614 15.7376C13.1961 15.5542 12.0185 15.1689 10.6213 13.9235C9.53471 12.9548 8.80104 11.758 8.58757 11.3919C8.37409 11.0266 8.56445 10.8285 8.74786 10.6459C8.91201 10.4817 9.11316 10.2189 9.29657 10.0055C9.47922 9.792 9.5401 9.63942 9.66186 9.39589C9.78363 9.15159 9.72275 8.93811 9.63104 8.75547C9.54087 8.57205 8.83032 6.76408 8.50511 6.04121Z" fill="white"/>
</svg>
