<svg width="160" height="48" viewBox="0 0 160 48" fill="none" xmlns="http://www.w3.org/2000/svg">
<path d="M56.4131 17.3693V21.8792H52.1738V8.34961H62.3308C67.2093 8.34961 68.6446 10.2751 68.6446 12.7497V12.9301C68.6446 15.3458 67.1701 17.3654 62.3308 17.3654H56.417L56.4131 17.3693ZM56.4131 14.334H62.2563C63.5857 14.334 64.221 13.8438 64.221 12.9144V12.8595C64.221 11.93 63.621 11.4242 62.2563 11.4242H56.4131V14.334Z" fill="white"/>
<path d="M73.6916 22.0596H73.4563C70.1621 22.0596 68.9072 20.5341 68.9072 18.8596V18.7341C68.9072 16.9341 70.0915 16.0792 73.021 15.8086L77.4995 15.389C77.9544 15.3341 78.1191 15.189 78.1191 14.8792C78.1191 14.5144 77.9544 14.0791 75.57 14.0791H75.4798C73.0602 14.0791 72.97 14.8439 72.9151 15.1694H69.1464V15.1341C69.1464 13.8438 69.5308 11.8242 74.9896 11.8242H75.9897C81.6682 11.8242 82.0329 13.5693 82.0329 14.989V18.7341C82.0329 19.0243 82.1231 19.2243 82.5427 19.2243H83.0721V21.8792H79.7779C78.9975 21.8792 78.3779 21.4596 78.2328 20.5341C77.8132 21.0596 76.5779 22.0596 73.6994 22.0596H73.6916ZM78.1152 17.2243L74.2367 17.8243C73.2014 17.989 72.7622 18.1694 72.7622 18.7341V18.7537C72.7622 19.2792 73.1622 19.8635 74.5465 19.8635C76.7112 19.8635 78.1152 18.6988 78.1152 17.538V17.2282V17.2243Z" fill="white"/>
<path d="M98.2681 17.4242C98.2681 21.2791 94.3544 22.1497 91.0249 22.1497H90.6602C87.1464 22.1497 83.417 21.1693 83.417 16.3693V15.0986C83.417 11.1535 85.0719 8.55348 90.9151 8.55348H93.1191C93.6093 8.55348 93.8289 8.46328 93.9544 8.33387C94.0289 8.27897 94.0642 8.20838 94.0799 8.11426H98.0093C98.0093 10.3888 97.0093 11.4398 93.77 11.4398H91.2955C88.2916 11.4398 87.2013 12.33 87.2013 14.2555V14.3457C87.7857 13.5653 89.5308 12.5457 92.37 12.5457H92.4798C94.5897 12.5457 98.2681 13.2712 98.2681 17.0359V17.4163V17.4242ZM94.1191 17.3889V17.1889C94.1191 15.8987 93.0289 15.1536 90.8445 15.1536C88.6602 15.1536 87.57 15.8791 87.57 17.1889V17.3889C87.57 18.6046 88.6641 19.5144 90.8445 19.5144C93.0249 19.5144 94.1191 18.5497 94.1191 17.3889Z" fill="white"/>
<path d="M106.06 22.1498C100.382 22.1498 99.0171 19.3498 99.0171 17.0949V16.7694C99.0171 14.5144 100.362 11.8242 106.041 11.8242H107.331C113.3 11.8242 114.339 14.5497 114.339 16.7694V17.0949C114.339 19.3498 113.374 22.1498 107.331 22.1498H106.056H106.06ZM110.229 16.9851V16.8949C110.229 15.6752 109.449 14.4242 106.715 14.4242H106.696C103.931 14.4242 103.166 15.6596 103.166 16.8949V16.9851C103.166 18.1302 103.931 19.5106 106.696 19.5106C109.46 19.5106 110.225 18.1302 110.225 16.9851H110.229Z" fill="white"/>
<path d="M127.688 12.0947V21.8752H123.629V18.5301C123.284 18.6007 122.139 18.785 120.7 18.785C117.186 18.785 114.966 18.2752 114.966 15.1693V12.0986H119.025V14.5144C119.025 15.7693 119.81 16.0948 121.829 16.0948C122.504 16.0948 123.284 16.0046 123.629 15.9497V12.0947H127.688Z" fill="white"/>
<path d="M129.298 12.0947H133.357V18.2556L139.506 12.0947H143.655V21.8752H139.596V15.7144L133.443 21.8752H129.294V12.0947H129.298Z" fill="white"/>
<path d="M159.517 18.4397C159.517 19.7652 158.643 22.1496 152.804 22.1496H151.764C146.541 22.1496 144.866 19.7143 144.866 17.1495V16.7495C144.866 14.2397 146.36 11.824 151.655 11.824H152.764C158.517 11.824 159.572 14.7142 159.572 17.0946V17.7652H148.854C149.09 18.9103 150.074 19.675 152.313 19.675H152.333C155.027 19.675 155.462 18.6554 155.517 18.4201H159.521V18.4397H159.517ZM152.184 14.0946C150.145 14.0946 149.235 14.7142 148.925 15.7495H155.478C155.204 14.7142 154.258 14.0946 152.204 14.0946H152.184Z" fill="white"/>
<path d="M56.4131 34.3027V38.8125H52.1738V25.2869H62.3308C67.2093 25.2869 68.6446 27.2124 68.6446 29.6869V29.8673C68.6446 32.283 67.1701 34.3027 62.3308 34.3027H56.417H56.4131ZM56.4131 31.2673H62.2563C63.5857 31.2673 64.221 30.7771 64.221 29.8477V29.7928C64.221 28.8673 63.621 28.3575 62.2563 28.3575H56.4131V31.2673Z" fill="white"/>
<path d="M71.272 39.3186H73.5661C73.9504 39.3186 74.0406 39.2088 74.0406 39.0088C74.0406 38.8088 73.8759 38.5343 73.5857 37.9735L68.9072 29.0283H73.2759L76.425 35.6441L79.4838 29.0283H83.5623L78.4289 39.4637C77.4995 41.299 76.5897 42.2285 74.8249 42.2285H71.2759V39.3186H71.272Z" fill="white"/>
<path d="M88.1116 34.3225V38.8127H84.0527V29.0322H88.1116V32.9421L92.0803 29.0322H96.5744L91.9509 33.448L97.1392 38.8088H92.3705L88.1116 34.3186V34.3225Z" fill="white"/>
<path d="M97.6172 29.0322H101.676V35.1931L107.825 29.0322H111.974V38.8127H107.915V32.6519L101.762 38.8127H97.6133V29.0322H97.6172Z" fill="white"/>
<path d="M12.6869 22.7497C12.6869 22.7497 12.7026 22.7497 12.7065 22.7497L17.4909 22.4438C17.5183 22.4438 17.5419 22.4203 17.5419 22.3889C17.5419 22.3889 17.5419 22.3889 17.5419 22.385L16.1105 0.0514086C16.1105 0.0200357 16.083 -0.00349401 16.0517 0.000427607L11.2673 0.306313C11.2398 0.306313 11.2163 0.329843 11.2163 0.361216C11.2163 0.361216 11.2163 0.361216 11.2163 0.365138L12.6516 22.6987C12.6516 22.7223 12.6673 22.7379 12.6869 22.7458V22.7497Z" fill="white"/>
<path d="M20.424 22.5303L25.2044 22.7852C25.2358 22.7852 25.2633 22.7616 25.2633 22.7303L26.5692 1.21238C26.5692 1.18101 26.5496 1.15356 26.5182 1.15356L21.7534 0.84375C21.7534 0.84375 21.7456 0.84375 21.7417 0.84375C21.7417 0.84375 21.7338 0.84375 21.7299 0.84375C21.7299 0.84375 21.7221 0.84375 21.7221 0.847672C21.7221 0.847672 21.7142 0.847672 21.7142 0.851593C21.7142 0.851593 21.7103 0.855515 21.7064 0.859436C21.7064 0.859436 21.7024 0.863358 21.6985 0.86728C21.6985 0.86728 21.6985 0.875123 21.6985 0.879044C21.6985 0.879044 21.6985 0.886888 21.6985 0.890809L20.3809 22.4636C20.3809 22.4636 20.3848 22.495 20.3965 22.5028C20.4044 22.5146 20.4201 22.5224 20.4358 22.5224L20.424 22.5303Z" fill="white"/>
<path d="M4.58475 24.542C4.58475 24.542 4.60436 24.5695 4.62004 24.5656L9.34559 23.5381C9.34559 23.5381 9.34951 23.5381 9.35343 23.5342C9.3652 23.5263 9.36912 23.5185 9.36912 23.5028L5.08672 3.81631L4.78475 2.43198C4.78475 2.43198 4.77691 2.41629 4.77299 2.41237C4.76514 2.40845 4.7573 2.40845 4.74946 2.40845L0.0239131 3.43983C0.0239131 3.43983 -0.00353817 3.45944 0.000383447 3.47513L3.45532 19.3498L4.58475 24.542Z" fill="white"/>
<path d="M33.0751 27.1536C33.2673 26.2399 33.4477 25.3262 33.5928 24.4124C33.7888 23.185 33.9731 21.9967 34.1535 20.8516C34.2633 20.1536 34.3575 19.483 34.4437 18.8398C34.5692 17.8829 34.7065 16.9261 34.8555 15.9653L35.3104 13.2201C35.3379 13.0554 35.3653 12.8907 35.3967 12.7221C35.3967 12.7103 35.3967 12.7025 35.3967 12.6946L36.0202 8.93382L36.1575 8.09459L31.2633 7.31812L30.4515 12.4515C30.2947 13.3888 30.1496 14.3182 30.0084 15.2437L30.0006 15.2868C29.9378 15.7143 29.8751 16.1417 29.8162 16.5692C29.7653 16.9221 29.7182 17.2712 29.6672 17.6241C29.4947 18.8437 29.3221 20.032 29.1496 21.1928C29.0554 21.8438 28.9456 22.5065 28.8241 23.185C28.6005 24.4163 28.4045 25.6869 28.126 26.9066C28.1182 26.9497 28.1103 26.9928 28.1025 27.0321L20.1377 26.836C19.0985 26.7772 18.0749 26.7223 17.0435 26.6987H16.9965C15.7886 26.6713 14.569 26.6752 13.3023 26.7497C11.5807 26.8477 9.9415 27.134 8.3807 27.6007C7.72579 27.7968 7.09441 28.0595 6.48264 28.3576C6.4395 28.3772 6.39636 28.4085 6.35323 28.4282C5.92185 28.6438 5.50616 28.8752 5.114 29.1497C4.95713 29.2595 4.81988 29.3929 4.67085 29.5105C4.40026 29.7223 4.12575 29.9262 3.88261 30.1654C3.49437 30.5497 3.14143 30.9733 2.83946 31.4439C2.15318 32.5027 1.72572 33.7341 1.5218 34.9537C1.36886 35.8792 1.38846 36.793 1.57278 37.6949C1.76494 38.6243 2.0473 39.5146 2.49828 40.3616C3.07084 41.4361 3.81202 42.4048 4.72184 43.2715C6.21597 44.695 7.96109 45.7068 9.90229 46.4048C12.7376 47.4323 15.8631 47.5421 18.7769 46.8597C19.5887 46.6676 20.4083 46.3342 21.1848 46.0284C21.5573 45.8793 21.9887 45.6636 22.4828 45.3852C24.7966 44.0715 26.7378 42.2361 28.275 39.9812C28.8672 39.1106 29.4045 38.1851 29.8907 37.2008C30.2986 36.3773 30.7261 35.4243 31.0437 34.5302C31.0751 34.4361 31.1064 34.3459 31.1378 34.2517C31.3339 33.6949 31.5221 33.1419 31.7025 32.5811L37.6948 32.9929L39.0007 27.2987L33.0829 27.1536H33.0751ZM24.8319 36.2479C23.5573 38.4832 21.7181 40.3695 19.3887 41.4479C18.8396 41.7028 18.2318 41.9185 17.569 42.0871C15.9612 42.5028 14.3337 42.5146 12.6906 42.1263C10.6396 41.6361 8.63168 40.5695 7.39638 38.9459C7.23951 38.7381 7.09049 38.5185 6.94931 38.2792C5.77675 36.2949 6.32577 33.8635 8.41599 32.7929C8.98071 32.5027 9.49836 32.2949 9.96895 32.1733C10.7729 31.9615 11.6749 31.8047 12.6709 31.7027C14.2553 31.5458 15.8475 31.5419 17.4435 31.6086L26.6437 32.24C26.5809 32.4204 26.5142 32.6204 26.4515 32.7929C26.0515 33.9067 25.5103 35.0596 24.8319 36.2518V36.2479Z" fill="white"/>
</svg>
