<svg width="155" height="46" viewBox="0 0 155 46" fill="none" xmlns="http://www.w3.org/2000/svg">
<path d="M54.797 16.8717V21.2524H50.6792V8.11037H60.5452C65.284 8.11037 66.6782 9.98072 66.6782 12.3844V12.5596C66.6782 14.9061 65.2459 16.8679 60.5452 16.8679H54.8008L54.797 16.8717ZM54.797 13.9233H60.4729C61.7642 13.9233 62.3813 13.4472 62.3813 12.5444V12.491C62.3813 11.5882 61.7985 11.0968 60.4729 11.0968H54.797V13.9233Z" fill="black"/>
<path d="M71.5809 21.4276H71.3524C68.1526 21.4276 66.9336 19.9458 66.9336 18.3192V18.1974C66.9336 16.4489 68.084 15.6185 70.9295 15.3556L75.2797 14.948C75.7216 14.8947 75.8816 14.7538 75.8816 14.4528C75.8816 14.0986 75.7216 13.6757 73.4056 13.6757H73.3179C70.9676 13.6757 70.88 14.4185 70.8267 14.7347H67.166V14.7004C67.166 13.4472 67.5393 11.4854 72.8418 11.4854H73.8132C79.329 11.4854 79.6833 13.1805 79.6833 14.5595V18.1974C79.6833 18.4792 79.7709 18.6735 80.1785 18.6735H80.6927V21.2524H77.4929C76.7349 21.2524 76.133 20.8448 75.9921 19.9458C75.5845 20.4563 74.3845 21.4276 71.5885 21.4276H71.5809ZM75.8778 16.7308L72.1104 17.3136C71.1048 17.4736 70.6781 17.6488 70.6781 18.1974V18.2164C70.6781 18.7268 71.0667 19.2944 72.4113 19.2944C74.5141 19.2944 75.8778 18.1631 75.8778 17.0355V16.7346V16.7308Z" fill="black"/>
<path d="M95.4536 16.9251C95.4536 20.6696 91.6519 21.5152 88.4178 21.5152H88.0636C84.6505 21.5152 81.0278 20.5629 81.0278 15.9004V14.6661C81.0278 10.834 82.6353 8.30846 88.3112 8.30846H90.452C90.9281 8.30846 91.1415 8.22085 91.2634 8.09514C91.3357 8.04181 91.37 7.97324 91.3853 7.88182H95.2022C95.2022 10.0912 94.2308 11.1121 91.0843 11.1121H88.6807C85.7628 11.1121 84.7038 11.9768 84.7038 13.8472V13.9348C85.2714 13.1767 86.9665 12.1863 89.7244 12.1863H89.8311C91.8805 12.1863 95.4536 12.891 95.4536 16.5479V16.9174V16.9251ZM91.4234 16.8908V16.6965C91.4234 15.4432 90.3644 14.7195 88.2426 14.7195C86.1208 14.7195 85.0619 15.4242 85.0619 16.6965V16.8908C85.0619 18.0716 86.1246 18.9554 88.2426 18.9554C90.3606 18.9554 91.4234 18.0183 91.4234 16.8908Z" fill="black"/>
<path d="M103.023 21.5152C97.5068 21.5152 96.1812 18.7954 96.1812 16.6051V16.2889C96.1812 14.0986 97.4877 11.4854 103.004 11.4854H104.257C110.055 11.4854 111.064 14.1328 111.064 16.2889V16.6051C111.064 18.7954 110.127 21.5152 104.257 21.5152H103.019H103.023ZM107.072 16.4984V16.4108C107.072 15.2261 106.314 14.011 103.659 14.011H103.64C100.954 14.011 100.211 15.2109 100.211 16.4108V16.4984C100.211 17.6107 100.954 18.9516 103.64 18.9516C106.325 18.9516 107.068 17.6107 107.068 16.4984H107.072Z" fill="black"/>
<path d="M124.031 11.7482V21.2486H120.088V17.9993C119.753 18.0678 118.641 18.2469 117.243 18.2469C113.829 18.2469 111.673 17.7517 111.673 14.7347V11.7521H115.616V14.0986C115.616 15.3175 116.378 15.6337 118.34 15.6337C118.995 15.6337 119.753 15.5461 120.088 15.4928V11.7482H124.031Z" fill="black"/>
<path d="M125.593 11.7482H129.535V17.7326L135.508 11.7482H139.538V21.2486H135.596V15.2642L129.619 21.2486H125.589V11.7482H125.593Z" fill="black"/>
<path d="M154.947 17.9117C154.947 19.1992 154.097 21.5152 148.425 21.5152H147.416C142.342 21.5152 140.715 19.1497 140.715 16.6584V16.2699C140.715 13.8319 142.167 11.4854 147.309 11.4854H148.387C153.975 11.4854 155 14.2928 155 16.6051V17.2565H144.589C144.818 18.3688 145.774 19.1116 147.949 19.1116H147.968C150.585 19.1116 151.008 18.1212 151.061 17.8926H154.951V17.9117H154.947ZM147.823 13.691C145.843 13.691 144.959 14.2928 144.658 15.2985H151.023C150.757 14.2928 149.839 13.691 147.842 13.691H147.823Z" fill="black"/>
<path d="M54.797 33.3202V37.7009H50.6792V24.5627H60.5452C65.284 24.5627 66.6782 26.433 66.6782 28.8367V29.0119C66.6782 31.3584 65.2459 33.3202 60.5452 33.3202H54.8008H54.797ZM54.797 30.3718H60.4729C61.7642 30.3718 62.3813 29.8956 62.3813 28.9928V28.9395C62.3813 28.0405 61.7985 27.5453 60.4729 27.5453H54.797V30.3718Z" fill="black"/>
<path d="M69.2306 38.1923H71.459C71.8323 38.1923 71.9199 38.0856 71.9199 37.8913C71.9199 37.697 71.76 37.4304 71.4781 36.8857L66.9336 28.1967H71.1771L74.236 34.623L77.2072 28.1967H81.1689L76.1825 38.3332C75.2797 40.1159 74.396 41.0187 72.6818 41.0187H69.2344V38.1923H69.2306Z" fill="black"/>
<path d="M85.5876 33.3393V37.7009H81.645V28.2005H85.5876V31.9984L89.4426 28.2005H93.8081L89.3169 32.4898L94.3566 37.6971H89.7245L85.5876 33.3354V33.3393Z" fill="black"/>
<path d="M94.8212 28.2005H98.7638V34.1849L104.737 28.2005H108.767V37.7009H104.824V31.7165L98.8476 37.7009H94.8174V28.2005H94.8212Z" fill="black"/>
<path d="M12.3235 22.0981C12.3235 22.0981 12.3387 22.0981 12.3425 22.0981L16.9899 21.8009C17.0165 21.8009 17.0394 21.7781 17.0394 21.7476C17.0394 21.7476 17.0394 21.7476 17.0394 21.7438L15.649 0.049936C15.649 0.0194618 15.6223 -0.00339392 15.5919 0.000415358L10.9445 0.297539C10.9179 0.297539 10.895 0.320395 10.895 0.350869C10.895 0.350869 10.895 0.350869 10.895 0.354678L12.2892 22.0485C12.2892 22.0714 12.3045 22.0866 12.3235 22.0942V22.0981Z" fill="#2D2E83"/>
<path d="M19.8393 21.8847L24.4828 22.1323C24.5133 22.1323 24.5399 22.1095 24.5399 22.079L25.8084 1.17748C25.8084 1.14701 25.7894 1.12035 25.7589 1.12035L21.1306 0.819412C21.1306 0.819412 21.123 0.819412 21.1192 0.819412C21.1192 0.819412 21.1116 0.819412 21.1078 0.819412C21.1078 0.819412 21.1001 0.819412 21.1001 0.823222C21.1001 0.823222 21.0925 0.823222 21.0925 0.827031C21.0925 0.827031 21.0887 0.83084 21.0849 0.834649C21.0849 0.834649 21.0811 0.838459 21.0773 0.842268C21.0773 0.842268 21.0773 0.849886 21.0773 0.853696C21.0773 0.853696 21.0773 0.861314 21.0773 0.865124L19.7974 21.82C19.7974 21.82 19.8012 21.8505 19.8126 21.8581C19.8202 21.8695 19.8355 21.8771 19.8507 21.8771L19.8393 21.8847Z" fill="#2D2E83"/>
<path d="M4.45342 23.8389C4.45342 23.8389 4.47247 23.8656 4.48771 23.8617L9.07789 22.8637C9.07789 22.8637 9.0817 22.8637 9.08551 22.8599C9.09694 22.8523 9.10075 22.8447 9.10075 22.8294L4.94101 3.70684L4.6477 2.36217C4.6477 2.36217 4.64008 2.34693 4.63627 2.34312C4.62865 2.33931 4.62103 2.33931 4.61341 2.33931L0.0232281 3.34115C0.0232281 3.34115 -0.00343682 3.3602 0.000372463 3.37543L3.35635 18.7954L4.45342 23.8389Z" fill="#2D2E83"/>
<path d="M32.1278 26.3759C32.3145 25.4883 32.4897 24.6008 32.6306 23.7132C32.8211 22.5209 33.0001 21.3667 33.1754 20.2544C33.282 19.5763 33.3734 18.9249 33.4573 18.3002C33.5792 17.3707 33.7125 16.4413 33.8572 15.508L34.2991 12.8415C34.3258 12.6815 34.3524 12.5215 34.3829 12.3577C34.3829 12.3463 34.3829 12.3387 34.3829 12.3311L34.9886 8.67796L35.1219 7.86277L30.3679 7.10854L29.5794 12.0949C29.427 13.0053 29.2861 13.9081 29.149 14.8071L29.1413 14.849C29.0804 15.2642 29.0194 15.6794 28.9623 16.0946C28.9128 16.4375 28.8671 16.7765 28.8175 17.1193C28.6499 18.304 28.4823 19.4582 28.3147 20.5858C28.2233 21.2181 28.1166 21.8619 27.9986 22.5209C27.7814 23.717 27.591 24.9512 27.3205 26.1359C27.3129 26.1778 27.3053 26.2197 27.2976 26.2578L19.561 26.0673C18.5515 26.0102 17.5573 25.9569 16.5555 25.934H16.5098C15.3365 25.9073 14.1518 25.9111 12.9214 25.9835C11.2491 26.0788 9.65687 26.3568 8.14077 26.8101C7.50462 27.0006 6.89133 27.2558 6.29708 27.5453C6.25518 27.5644 6.21328 27.5948 6.17137 27.6139C5.75235 27.8234 5.34857 28.0482 4.96764 28.3148C4.81527 28.4215 4.68194 28.551 4.53719 28.6653C4.27435 28.871 4.0077 29.069 3.77153 29.3014C3.39441 29.6747 3.05157 30.0861 2.75826 30.5432C2.09163 31.5717 1.67642 32.7679 1.47834 33.9525C1.32978 34.8515 1.34882 35.7391 1.52786 36.6152C1.71452 37.518 1.98878 38.3827 2.42685 39.2055C2.98301 40.2493 3.70296 41.1902 4.58671 42.032C6.03805 43.4148 7.73318 44.3976 9.61877 45.0756C12.3729 46.0737 15.4089 46.1803 18.2392 45.5175C19.0277 45.3309 19.8238 45.0071 20.5781 44.7099C20.94 44.5652 21.359 44.3557 21.8389 44.0852C24.0864 42.8091 25.972 41.0264 27.4653 38.836C28.0405 37.9904 28.5623 37.0914 29.0347 36.1353C29.4308 35.3353 29.8461 34.4097 30.1546 33.5411C30.1851 33.4497 30.2156 33.3621 30.246 33.2707C30.4365 32.7298 30.6193 32.1926 30.7946 31.6479L36.6151 32.0479L37.8836 26.5168L32.1354 26.3759H32.1278ZM24.1207 35.2096C22.8827 37.3809 21.0961 39.2132 18.8334 40.2607C18.3001 40.5083 17.7097 40.7178 17.0659 40.8816C15.5041 41.2854 13.9233 41.2968 12.3272 40.9197C10.3349 40.4436 8.38457 39.4074 7.18464 37.8304C7.03227 37.6285 6.88752 37.4152 6.75038 37.1828C5.61141 35.2553 6.14471 32.8936 8.17506 31.8536C8.72359 31.5717 9.22642 31.3698 9.68353 31.2518C10.4644 31.0461 11.3406 30.8937 12.3081 30.7946C13.8471 30.6423 15.3936 30.6385 16.944 30.7032L25.8806 31.3165C25.8196 31.4917 25.7549 31.686 25.6939 31.8536C25.3054 32.9355 24.7797 34.0554 24.1207 35.2134V35.2096Z" fill="#2D2E83"/>
</svg>
